<svg width="61" height="61" viewBox="0 0 61 61" fill="none" xmlns="http://www.w3.org/2000/svg">
<path d="M30.4 0C13.68 0 0 13.68 0 30.4C0 47.12 13.68 60.8 30.4 60.8C47.12 60.8 60.8 47.12 60.8 30.4C60.8 13.68 47.12 0 30.4 0ZM30.4 7.6C43.016 7.6 53.2 17.784 53.2 30.4C53.2 43.016 43.016 53.2 30.4 53.2C17.784 53.2 7.6 43.016 7.6 30.4C7.6 17.784 17.784 7.6 30.4 7.6ZM26.6 15.2V32.072L27.816 33.06L31.616 36.86L34.2 39.748L39.672 34.276L36.784 31.692L34.2 29.108V15.352H26.6V15.2Z" fill="white"/>
</svg>
